<svg width="18" height="18" viewBox="0 0 18 18" fill="none" xmlns="http://www.w3.org/2000/svg">
<path d="M8.1 2V1C8.1 0.734784 8.19482 0.48043 8.3636 0.292893C8.53239 0.105357 8.7613 0 9 0C9.23869 0 9.46761 0.105357 9.6364 0.292893C9.80518 0.48043 9.9 0.734784 9.9 1V2H12.6V1C12.6 0.734784 12.6948 0.48043 12.8636 0.292893C13.0324 0.105357 13.2613 0 13.5 0C13.7387 0 13.9676 0.105357 14.1364 0.292893C14.3052 0.48043 14.4 0.734784 14.4 1V2H15.3C16.0161 2 16.7028 2.31607 17.2092 2.87868C17.7155 3.44129 18 4.20435 18 5V15C18 15.7956 17.7155 16.5587 17.2092 17.1213C16.7028 17.6839 16.0161 18 15.3 18H2.7C1.98392 18 1.29716 17.6839 0.790812 17.1213C0.284463 16.5587 0 15.7956 0 15L0 5C0 4.20435 0.284463 3.44129 0.790812 2.87868C1.29716 2.31607 1.98392 2 2.7 2H3.6V1C3.6 0.734784 3.69482 0.48043 3.8636 0.292893C4.03239 0.105357 4.2613 0 4.5 0C4.73869 0 4.96761 0.105357 5.1364 0.292893C5.30518 0.48043 5.4 0.734784 5.4 1V2H8.1ZM8.1 4H5.4V5C5.4 5.26522 5.30518 5.51957 5.1364 5.70711C4.96761 5.89464 4.73869 6 4.5 6C4.2613 6 4.03239 5.89464 3.8636 5.70711C3.69482 5.51957 3.6 5.26522 3.6 5V4H2.7C2.46131 4 2.23239 4.10536 2.0636 4.29289C1.89482 4.48043 1.8 4.73478 1.8 5V15C1.8 15.2652 1.89482 15.5196 2.0636 15.7071C2.23239 15.8946 2.46131 16 2.7 16H15.3C15.5387 16 15.7676 15.8946 15.9364 15.7071C16.1052 15.5196 16.2 15.2652 16.2 15V5C16.2 4.73478 16.1052 4.48043 15.9364 4.29289C15.7676 4.10536 15.5387 4 15.3 4H14.4V5C14.4 5.26522 14.3052 5.51957 14.1364 5.70711C13.9676 5.89464 13.7387 6 13.5 6C13.2613 6 13.0324 5.89464 12.8636 5.70711C12.6948 5.51957 12.6 5.26522 12.6 5V4H9.9V5C9.9 5.26522 9.80518 5.51957 9.6364 5.70711C9.46761 5.89464 9.23869 6 9 6C8.7613 6 8.53239 5.89464 8.3636 5.70711C8.19482 5.51957 8.1 5.26522 8.1 5V4ZM2.7 8H4.5V10H2.7V8ZM2.7 12H4.5V14H2.7V12ZM13.5 12H15.3V14H13.5V12ZM13.5 8H15.3V10H13.5V8ZM6.3 8H8.1V10H6.3V8ZM9.9 8H11.7V10H9.9V8ZM9.9 12H11.7V14H9.9V12ZM6.3 12H8.1V14H6.3V12Z" fill="#21272A"/>
</svg>
