<svg width="16" height="16" viewBox="0 0 16 16" fill="none" xmlns="http://www.w3.org/2000/svg">
<path d="M7.99935 8.66668C8.36754 8.66668 8.66602 8.3682 8.66602 8.00001C8.66602 7.63182 8.36754 7.33334 7.99935 7.33334C7.63116 7.33334 7.33268 7.63182 7.33268 8.00001C7.33268 8.3682 7.63116 8.66668 7.99935 8.66668Z" stroke="black" stroke-width="1.33333" stroke-linecap="round" stroke-linejoin="round"/>
<path d="M12.666 8.66668C13.0342 8.66668 13.3327 8.3682 13.3327 8.00001C13.3327 7.63182 13.0342 7.33334 12.666 7.33334C12.2978 7.33334 11.9993 7.63182 11.9993 8.00001C11.9993 8.3682 12.2978 8.66668 12.666 8.66668Z" stroke="black" stroke-width="1.33333" stroke-linecap="round" stroke-linejoin="round"/>
<path d="M3.33268 8.66668C3.70087 8.66668 3.99935 8.3682 3.99935 8.00001C3.99935 7.63182 3.70087 7.33334 3.33268 7.33334C2.96449 7.33334 2.66602 7.63182 2.66602 8.00001C2.66602 8.3682 2.96449 8.66668 3.33268 8.66668Z" stroke="black" stroke-width="1.33333" stroke-linecap="round" stroke-linejoin="round"/>
</svg>
