<svg width="20" height="21" viewBox="0 0 20 21" fill="none" xmlns="http://www.w3.org/2000/svg">
<path d="M0 20.2667V18.0148H2.22222V0H13.3333V1.12593H17.7778V18.0148H20V20.2667H15.5556V3.37778H13.3333V20.2667H0ZM8.88889 11.2593C9.2037 11.2593 9.46778 11.1512 9.68111 10.935C9.89445 10.7188 10.0007 10.4516 10 10.1333C9.99926 9.81507 9.89259 9.54785 9.68 9.33167C9.46741 9.1155 9.2037 9.00741 8.88889 9.00741C8.57407 9.00741 8.31037 9.1155 8.09778 9.33167C7.88519 9.54785 7.77852 9.81507 7.77778 10.1333C7.77704 10.4516 7.8837 10.7192 8.09778 10.9361C8.31185 11.153 8.57556 11.2608 8.88889 11.2593Z" fill="#55A399"/>
</svg>
