<svg width="14" height="15" viewBox="0 0 14 15" fill="none" xmlns="http://www.w3.org/2000/svg">
<path d="M7 2.5C6.01109 2.5 5.0444 2.79324 4.22215 3.34265C3.3999 3.89206 2.75904 4.67295 2.3806 5.58658C2.00217 6.50021 1.90315 7.50555 2.09608 8.47545C2.289 9.44536 2.76521 10.3363 3.46447 11.0355C4.16373 11.7348 5.05465 12.211 6.02455 12.4039C6.99445 12.5969 7.99979 12.4978 8.91342 12.1194C9.82705 11.741 10.6079 11.1001 11.1573 10.2778C11.7068 9.4556 12 8.48891 12 7.5C11.9986 6.17435 11.4714 4.90339 10.534 3.96601C9.59661 3.02863 8.32565 2.5014 7 2.5ZM9.69231 7.88461H7C6.89799 7.88461 6.80017 7.84409 6.72804 7.77196C6.65591 7.69983 6.61539 7.60201 6.61539 7.5V4.80769C6.61539 4.70569 6.65591 4.60786 6.72804 4.53573C6.80017 4.4636 6.89799 4.42308 7 4.42308C7.10201 4.42308 7.19984 4.4636 7.27197 4.53573C7.34409 4.60786 7.38462 4.70569 7.38462 4.80769V7.11538H9.69231C9.79431 7.11538 9.89214 7.15591 9.96427 7.22803C10.0364 7.30016 10.0769 7.39799 10.0769 7.5C10.0769 7.60201 10.0364 7.69983 9.96427 7.77196C9.89214 7.84409 9.79431 7.88461 9.69231 7.88461Z" fill="#5F5F5F"/>
</svg>
