<svg width="18" height="18" viewBox="0 0 18 18" fill="none" xmlns="http://www.w3.org/2000/svg">
<g clip-path="url(#clip0_610_6982)">
<path d="M10.5 2.25H7.5C7.08579 2.25 6.75 2.58579 6.75 3V3.75C6.75 4.16421 7.08579 4.5 7.5 4.5H10.5C10.9142 4.5 11.25 4.16421 11.25 3.75V3C11.25 2.58579 10.9142 2.25 10.5 2.25Z" stroke="white" stroke-linecap="round" stroke-linejoin="round"/>
<path d="M7.5 4.5V5.235C7.5 5.89275 7.0245 6.4545 6.375 6.5625C5.7255 6.6705 5.25 7.23225 5.25 7.89V14.25C5.25 14.6478 5.40804 15.0294 5.68934 15.3107C5.97064 15.592 6.35218 15.75 6.75 15.75H11.25C11.6478 15.75 12.0294 15.592 12.3107 15.3107C12.592 15.0294 12.75 14.6478 12.75 14.25V7.89C12.75 7.23225 12.2745 6.6705 11.625 6.5625C11.3107 6.51014 11.0252 6.348 10.8192 6.10494C10.6132 5.86187 10.5001 5.55361 10.5 5.235V4.5" stroke="white" stroke-linecap="round" stroke-linejoin="round"/>
<path d="M5.25 9H12.75" stroke="white" stroke-linecap="round" stroke-linejoin="round"/>
<path d="M5.25 13.5H12.75" stroke="white" stroke-linecap="round" stroke-linejoin="round"/>
<path d="M8.25 11.25H9.75" stroke="white" stroke-linecap="round" stroke-linejoin="round"/>
</g>
<defs>
<clipPath id="clip0_610_6982">
<rect width="18" height="18" fill="white"/>
</clipPath>
</defs>
</svg>
