<svg width="18" height="18" viewBox="0 0 18 18" fill="none" xmlns="http://www.w3.org/2000/svg">
<path d="M12.75 6.75C12.75 5.75544 12.3549 4.80161 11.6517 4.09835C10.9484 3.39509 9.99456 3 9 3C8.00544 3 7.05161 3.39509 6.34835 4.09835C5.64509 4.80161 5.25 5.75544 5.25 6.75C5.25 8.0445 6.495 10.5232 9 13.9897C11.505 10.5232 12.75 8.0445 12.75 6.75ZM9 16.5C5.49975 11.9325 3.75 8.68275 3.75 6.75C3.75 5.35761 4.30312 4.02226 5.28769 3.03769C6.27226 2.05312 7.60761 1.5 9 1.5C10.3924 1.5 11.7277 2.05312 12.7123 3.03769C13.6969 4.02226 14.25 5.35761 14.25 6.75C14.25 8.68275 12.5002 11.9325 9 16.5ZM9 9.75C8.20435 9.75 7.44129 9.43393 6.87868 8.87132C6.31607 8.30871 6 7.54565 6 6.75C6 5.95435 6.31607 5.19129 6.87868 4.62868C7.44129 4.06607 8.20435 3.75 9 3.75C9.79565 3.75 10.5587 4.06607 11.1213 4.62868C11.6839 5.19129 12 5.95435 12 6.75C12 7.54565 11.6839 8.30871 11.1213 8.87132C10.5587 9.43393 9.79565 9.75 9 9.75ZM9 8.25C9.39782 8.25 9.77936 8.09196 10.0607 7.81066C10.342 7.52936 10.5 7.14782 10.5 6.75C10.5 6.35218 10.342 5.97064 10.0607 5.68934C9.77936 5.40804 9.39782 5.25 9 5.25C8.60218 5.25 8.22064 5.40804 7.93934 5.68934C7.65804 5.97064 7.5 6.35218 7.5 6.75C7.5 7.14782 7.65804 7.52936 7.93934 7.81066C8.22064 8.09196 8.60218 8.25 9 8.25Z" fill="#21272A"/>
</svg>
