<svg width="14" height="15" viewBox="0 0 14 15" fill="none" xmlns="http://www.w3.org/2000/svg">
<g opacity="0.7">
<path d="M4.66602 5.16666V3.53332C4.66602 2.87993 4.66602 2.55323 4.79317 2.30367C4.90503 2.08415 5.0835 1.90567 5.30303 1.79382C5.55259 1.66666 5.87929 1.66666 6.53268 1.66666H10.966C11.6194 1.66666 11.9461 1.66666 12.1957 1.79382C12.4152 1.90567 12.5937 2.08415 12.7055 2.30367C12.8327 2.55323 12.8327 2.87993 12.8327 3.53332V7.96666C12.8327 8.62005 12.8327 8.94675 12.7055 9.19631C12.5937 9.41584 12.4152 9.59431 12.1957 9.70616C11.9461 9.83332 11.6194 9.83332 10.966 9.83332H9.33268M3.03268 13.3333H7.46602C8.11941 13.3333 8.44611 13.3333 8.69567 13.2062C8.91519 13.0943 9.09367 12.9158 9.20552 12.6963C9.33268 12.4467 9.33268 12.1201 9.33268 11.4667V7.03332C9.33268 6.37993 9.33268 6.05323 9.20552 5.80367C9.09367 5.58415 8.91519 5.40567 8.69567 5.29382C8.44611 5.16666 8.11941 5.16666 7.46602 5.16666H3.03268C2.37929 5.16666 2.05259 5.16666 1.80303 5.29382C1.5835 5.40567 1.40503 5.58415 1.29317 5.80367C1.16602 6.05323 1.16602 6.37993 1.16602 7.03332V11.4667C1.16602 12.1201 1.16602 12.4467 1.29317 12.6963C1.40503 12.9158 1.5835 13.0943 1.80303 13.2062C2.05259 13.3333 2.37929 13.3333 3.03268 13.3333Z" stroke="#232323" stroke-width="1.16667" stroke-linecap="round" stroke-linejoin="round"/>
</g>
</svg>
