<svg width="18" height="18" viewBox="0 0 18 18" fill="none" xmlns="http://www.w3.org/2000/svg">
<path d="M6.75 11.1877V11.625C6.75 12.5201 7.10558 13.3785 7.73851 14.0115C8.37145 14.6444 9.22989 15 10.125 15C11.0201 15 11.8785 14.6444 12.5115 14.0115C13.1444 13.3785 13.5 12.5201 13.5 11.625V10.3725C12.9994 10.1956 12.5774 9.84735 12.3087 9.3894C12.04 8.93144 11.9419 8.39323 12.0316 7.86991C12.1214 7.34659 12.3933 6.87184 12.7992 6.52959C13.2052 6.18735 13.719 5.99963 14.25 5.99963C14.781 5.99963 15.2948 6.18735 15.7008 6.52959C16.1067 6.87184 16.3786 7.34659 16.4684 7.86991C16.5581 8.39323 16.46 8.93144 16.1913 9.3894C15.9226 9.84735 15.5006 10.1956 15 10.3725V11.625C15 12.9179 14.4864 14.1579 13.5721 15.0721C12.6579 15.9864 11.4179 16.5 10.125 16.5C8.83207 16.5 7.59209 15.9864 6.67785 15.0721C5.76361 14.1579 5.25 12.9179 5.25 11.625V11.1877C4.20145 11.0102 3.24961 10.4672 2.5632 9.65486C1.87679 8.84257 1.50014 7.81348 1.5 6.75L1.5 3C1.5 2.60218 1.65804 2.22064 1.93934 1.93934C2.22064 1.65804 2.60218 1.5 3 1.5H3.75C3.94891 1.5 4.13968 1.57902 4.28033 1.71967C4.42098 1.86032 4.5 2.05109 4.5 2.25C4.5 2.44891 4.42098 2.63968 4.28033 2.78033C4.13968 2.92098 3.94891 3 3.75 3H3V6.75C3 7.54565 3.31607 8.30871 3.87868 8.87132C4.44129 9.43393 5.20435 9.75 6 9.75C6.79565 9.75 7.55871 9.43393 8.12132 8.87132C8.68393 8.30871 9 7.54565 9 6.75V3H8.25C8.05109 3 7.86032 2.92098 7.71967 2.78033C7.57902 2.63968 7.5 2.44891 7.5 2.25C7.5 2.05109 7.57902 1.86032 7.71967 1.71967C7.86032 1.57902 8.05109 1.5 8.25 1.5H9C9.39782 1.5 9.77936 1.65804 10.0607 1.93934C10.342 2.22064 10.5 2.60218 10.5 3V6.75C10.4999 7.81348 10.1232 8.84257 9.4368 9.65486C8.75039 10.4672 7.79855 11.0102 6.75 11.1877ZM14.25 9C14.4489 9 14.6397 8.92098 14.7803 8.78033C14.921 8.63968 15 8.44891 15 8.25C15 8.05109 14.921 7.86032 14.7803 7.71967C14.6397 7.57902 14.4489 7.5 14.25 7.5C14.0511 7.5 13.8603 7.57902 13.7197 7.71967C13.579 7.86032 13.5 8.05109 13.5 8.25C13.5 8.44891 13.579 8.63968 13.7197 8.78033C13.8603 8.92098 14.0511 9 14.25 9Z" fill="#21272A"/>
</svg>
